<mxfile host="app.diagrams.net" modified="2021-09-23T07:13:58.960Z" agent="5.0 (Windows)" etag="3U9RbE0OBx1VSjjXDviM" version="15.3.0" type="github">
  <diagram id="e25jnOVaxKvHYC8yiLxX" name="Page-1">
    <mxGraphModel dx="865" dy="413" grid="1" gridSize="10" guides="1" tooltips="1" connect="1" arrows="1" fold="1" page="1" pageScale="1" pageWidth="827" pageHeight="1169" math="0" shadow="0">
      <root>
        <mxCell id="0" />
        <mxCell id="1" parent="0" />
        <mxCell id="fZhwSwcIy2WnvR9DnaSz-1" value="Преподаватели" style="shape=umlActor;verticalLabelPosition=bottom;verticalAlign=top;html=1;outlineConnect=0;" parent="1" vertex="1">
          <mxGeometry x="160" y="50" width="40" height="80" as="geometry" />
        </mxCell>
        <mxCell id="fZhwSwcIy2WnvR9DnaSz-2" value="Обучающиеся" style="shape=umlActor;verticalLabelPosition=bottom;verticalAlign=top;html=1;outlineConnect=0;" parent="1" vertex="1">
          <mxGeometry x="160" y="180" width="40" height="80" as="geometry" />
        </mxCell>
        <mxCell id="fZhwSwcIy2WnvR9DnaSz-3" value="Технические&amp;nbsp;&lt;br&gt;работники" style="shape=umlActor;verticalLabelPosition=bottom;verticalAlign=top;html=1;outlineConnect=0;" parent="1" vertex="1">
          <mxGeometry x="160" y="320" width="40" height="80" as="geometry" />
        </mxCell>
        <mxCell id="ibrE2urBBhUjbJtS3a53-1" style="rounded=0;orthogonalLoop=1;jettySize=auto;html=1;endArrow=none;endFill=0;" edge="1" parent="1" source="fZhwSwcIy2WnvR9DnaSz-4" target="fZhwSwcIy2WnvR9DnaSz-13">
          <mxGeometry relative="1" as="geometry" />
        </mxCell>
        <mxCell id="fZhwSwcIy2WnvR9DnaSz-4" value="Завуч" style="shape=umlActor;verticalLabelPosition=bottom;verticalAlign=top;html=1;outlineConnect=0;" parent="1" vertex="1">
          <mxGeometry x="730" y="85" width="40" height="80" as="geometry" />
        </mxCell>
        <mxCell id="ibrE2urBBhUjbJtS3a53-5" value="" style="edgeStyle=none;rounded=0;orthogonalLoop=1;jettySize=auto;html=1;endArrow=none;endFill=0;" edge="1" parent="1" source="fZhwSwcIy2WnvR9DnaSz-6" target="fZhwSwcIy2WnvR9DnaSz-1">
          <mxGeometry relative="1" as="geometry" />
        </mxCell>
        <mxCell id="fZhwSwcIy2WnvR9DnaSz-6" value="обучение учащихся" style="ellipse;whiteSpace=wrap;html=1;" parent="1" vertex="1">
          <mxGeometry x="230" y="50" width="160" height="40" as="geometry" />
        </mxCell>
        <mxCell id="ibrE2urBBhUjbJtS3a53-6" value="" style="edgeStyle=none;rounded=0;orthogonalLoop=1;jettySize=auto;html=1;endArrow=none;endFill=0;" edge="1" parent="1" source="fZhwSwcIy2WnvR9DnaSz-7" target="fZhwSwcIy2WnvR9DnaSz-1">
          <mxGeometry relative="1" as="geometry" />
        </mxCell>
        <mxCell id="fZhwSwcIy2WnvR9DnaSz-7" value="предоставление доп.&lt;br&gt;учебного материала" style="ellipse;whiteSpace=wrap;html=1;" parent="1" vertex="1">
          <mxGeometry x="230" y="90" width="160" height="40" as="geometry" />
        </mxCell>
        <mxCell id="ibrE2urBBhUjbJtS3a53-7" value="" style="edgeStyle=none;rounded=0;orthogonalLoop=1;jettySize=auto;html=1;endArrow=none;endFill=0;" edge="1" parent="1" source="fZhwSwcIy2WnvR9DnaSz-8" target="fZhwSwcIy2WnvR9DnaSz-2">
          <mxGeometry relative="1" as="geometry" />
        </mxCell>
        <mxCell id="fZhwSwcIy2WnvR9DnaSz-8" value="подача заявок на&amp;nbsp;&lt;br&gt;поступление" style="ellipse;whiteSpace=wrap;html=1;" parent="1" vertex="1">
          <mxGeometry x="230" y="170" width="160" height="40" as="geometry" />
        </mxCell>
        <mxCell id="ibrE2urBBhUjbJtS3a53-8" value="" style="edgeStyle=none;rounded=0;orthogonalLoop=1;jettySize=auto;html=1;endArrow=none;endFill=0;" edge="1" parent="1" source="fZhwSwcIy2WnvR9DnaSz-9" target="fZhwSwcIy2WnvR9DnaSz-2">
          <mxGeometry relative="1" as="geometry" />
        </mxCell>
        <mxCell id="fZhwSwcIy2WnvR9DnaSz-9" value="оценка работы сервиса" style="ellipse;whiteSpace=wrap;html=1;" parent="1" vertex="1">
          <mxGeometry x="230" y="230" width="160" height="40" as="geometry" />
        </mxCell>
        <mxCell id="ibrE2urBBhUjbJtS3a53-9" value="" style="edgeStyle=none;rounded=0;orthogonalLoop=1;jettySize=auto;html=1;endArrow=none;endFill=0;" edge="1" parent="1" source="fZhwSwcIy2WnvR9DnaSz-10" target="fZhwSwcIy2WnvR9DnaSz-3">
          <mxGeometry relative="1" as="geometry" />
        </mxCell>
        <mxCell id="fZhwSwcIy2WnvR9DnaSz-10" value="доработка сайта на&amp;nbsp;&lt;br&gt;основе отзывов" style="ellipse;whiteSpace=wrap;html=1;" parent="1" vertex="1">
          <mxGeometry x="230" y="310" width="160" height="40" as="geometry" />
        </mxCell>
        <mxCell id="fZhwSwcIy2WnvR9DnaSz-11" value="отладка системы по&amp;nbsp;&lt;br&gt;обработке заявок" style="ellipse;whiteSpace=wrap;html=1;" parent="1" vertex="1">
          <mxGeometry x="490" y="365" width="160" height="40" as="geometry" />
        </mxCell>
        <mxCell id="ibrE2urBBhUjbJtS3a53-11" value="" style="edgeStyle=none;rounded=0;orthogonalLoop=1;jettySize=auto;html=1;endArrow=none;endFill=0;" edge="1" parent="1" source="fZhwSwcIy2WnvR9DnaSz-12" target="fZhwSwcIy2WnvR9DnaSz-3">
          <mxGeometry relative="1" as="geometry" />
        </mxCell>
        <mxCell id="fZhwSwcIy2WnvR9DnaSz-12" value="поддержка функционирования&lt;br&gt;сайта" style="ellipse;whiteSpace=wrap;html=1;" parent="1" vertex="1">
          <mxGeometry x="230" y="360" width="160" height="50" as="geometry" />
        </mxCell>
        <mxCell id="fZhwSwcIy2WnvR9DnaSz-13" value="создание курса" style="ellipse;whiteSpace=wrap;html=1;" parent="1" vertex="1">
          <mxGeometry x="490" y="50" width="160" height="35" as="geometry" />
        </mxCell>
        <mxCell id="ibrE2urBBhUjbJtS3a53-2" value="" style="edgeStyle=none;rounded=0;orthogonalLoop=1;jettySize=auto;html=1;endArrow=none;endFill=0;" edge="1" parent="1" source="fZhwSwcIy2WnvR9DnaSz-14" target="fZhwSwcIy2WnvR9DnaSz-4">
          <mxGeometry relative="1" as="geometry" />
        </mxCell>
        <mxCell id="fZhwSwcIy2WnvR9DnaSz-14" value="составление учебного&lt;br&gt;плана" style="ellipse;whiteSpace=wrap;html=1;" parent="1" vertex="1">
          <mxGeometry x="490" y="85" width="160" height="35" as="geometry" />
        </mxCell>
        <mxCell id="ibrE2urBBhUjbJtS3a53-3" value="" style="edgeStyle=none;rounded=0;orthogonalLoop=1;jettySize=auto;html=1;endArrow=none;endFill=0;" edge="1" parent="1" source="fZhwSwcIy2WnvR9DnaSz-15" target="fZhwSwcIy2WnvR9DnaSz-4">
          <mxGeometry relative="1" as="geometry" />
        </mxCell>
        <mxCell id="fZhwSwcIy2WnvR9DnaSz-15" value="выбор преподавателя&lt;br&gt;для курса" style="ellipse;whiteSpace=wrap;html=1;" parent="1" vertex="1">
          <mxGeometry x="490" y="120" width="160" height="40" as="geometry" />
        </mxCell>
        <mxCell id="ibrE2urBBhUjbJtS3a53-4" value="" style="edgeStyle=none;rounded=0;orthogonalLoop=1;jettySize=auto;html=1;endArrow=none;endFill=0;" edge="1" parent="1" source="fZhwSwcIy2WnvR9DnaSz-17" target="fZhwSwcIy2WnvR9DnaSz-4">
          <mxGeometry relative="1" as="geometry" />
        </mxCell>
        <mxCell id="fZhwSwcIy2WnvR9DnaSz-17" value="добавление студентов&lt;br&gt;на курс" style="ellipse;whiteSpace=wrap;html=1;" parent="1" vertex="1">
          <mxGeometry x="490" y="161" width="160" height="40" as="geometry" />
        </mxCell>
        <mxCell id="ibrE2urBBhUjbJtS3a53-12" value="&amp;lt;&amp;lt;extend&amp;gt;&amp;gt;" style="html=1;verticalAlign=bottom;labelBackgroundColor=none;endArrow=open;endFill=0;dashed=1;" edge="1" parent="1" source="fZhwSwcIy2WnvR9DnaSz-11" target="fZhwSwcIy2WnvR9DnaSz-12">
          <mxGeometry width="160" relative="1" as="geometry">
            <mxPoint x="450" y="330" as="sourcePoint" />
            <mxPoint x="610" y="330" as="targetPoint" />
          </mxGeometry>
        </mxCell>
      </root>
    </mxGraphModel>
  </diagram>
</mxfile>
